# xmcd CD database file
#
# Track frame offsets:
#	150
#	17915
#	32172
#	47715
#	66062
#	80747
#	102827
#
# Disc length: 1954 seconds
#
# Revision: 0
# Processed by: cddbd v1.5.1PL0 Copyright (c) Steve Scherf et al.
# Submitted via: CDex 1.51
#
DISCID=5607a007
DTITLE=Festa Popular - divers
DYEAR=1900
DGENRE=Country
TTITLE0=Leandro e Leonardo - Um sonhador
TTITLE1=Chiclete com Banana - Perfume de Luar
TTITLE2=Patu Fu - Sobre o tempo
TTITLE3=Malicia - Alguém Especial
TTITLE4=Elba Ramalho - Chameguinho
TTITLE5=Amado Batista - Meu Ex-Amor
TTITLE6=bonus
EXTD=
EXTT0=
EXTT1=
EXTT2=
EXTT3=
EXTT4=
EXTT5=
EXTT6=
PLAYORDER=
